<?xml version="1.0" standalone="no"?>
<!DOCTYPE svg PUBLIC "-//W3C//DTD SVG 20010904//EN"
 "http://www.w3.org/TR/2001/REC-SVG-20010904/DTD/svg10.dtd">
<svg version="1.0" xmlns="http://www.w3.org/2000/svg"
 width="225.000000pt" height="225.000000pt" viewBox="0 0 225.000000 225.000000"
 preserveAspectRatio="xMidYMid meet">

<g transform="translate(0.000000,225.000000) scale(0.100000,-0.100000)"
fill="#000000" stroke="none">
<path d="M741 1829 c-48 -19 -84 -54 -107 -103 l-24 -51 0 -550 0 -550 24 -50
c27 -58 47 -78 99 -100 30 -13 94 -15 394 -15 400 0 414 3 465 71 47 64 48 71
48 648 l0 546 -24 50 c-27 58 -47 78 -99 100 -30 13 -94 15 -394 14 -199 0
-368 -4 -382 -10z m776 -65 c15 -11 38 -40 51 -65 l23 -44 -3 -546 -3 -546
-29 -37 c-50 -66 -56 -67 -446 -64 -396 3 -383 1 -427 88 l-23 44 0 531 c0
493 2 533 19 570 21 47 48 73 87 85 16 5 185 8 376 7 332 -2 348 -3 375 -23z"/>
<path d="M740 1658 c-18 -20 -20 -35 -20 -155 0 -129 1 -135 25 -158 l24 -25
354 0 c334 0 356 1 378 19 23 18 24 26 27 153 3 124 2 135 -18 161 l-21 27
-364 0 c-362 0 -364 0 -385 -22z m728 -155 l-3 -128 -334 -3 c-238 -2 -338 1
-347 9 -10 8 -14 41 -14 124 0 61 3 115 7 118 3 4 161 7 350 7 l344 0 -3 -127z"/>
<path d="M741 1234 c-31 -39 -29 -117 4 -149 21 -22 33 -25 98 -25 98 0 118
15 125 93 4 50 2 58 -21 81 -24 24 -34 26 -106 26 -74 0 -81 -2 -100 -26z
m167 -72 l3 -43 -68 3 c-73 3 -82 11 -69 64 6 24 10 25 69 22 l62 -3 3 -43z"/>
<path d="M1022 1237 c-33 -35 -31 -119 3 -152 21 -22 33 -25 98 -25 103 0 122
15 122 100 0 85 -19 100 -124 100 -68 0 -80 -3 -99 -23z m166 -75 l3 -43 -68
3 c-66 3 -68 4 -71 31 -6 52 2 58 70 55 l63 -3 3 -43z"/>
<path d="M1300 1240 c-16 -16 -20 -33 -20 -79 0 -52 3 -62 26 -80 21 -17 41
-21 96 -21 38 0 78 4 88 10 45 24 50 145 7 175 -15 10 -46 15 -99 15 -65 0
-81 -3 -98 -20z m168 -77 l3 -43 -70 0 -71 0 0 38 c0 21 3 42 7 46 4 4 34 6
68 4 l60 -3 3 -42z"/>
<path d="M741 984 c-31 -39 -29 -117 4 -149 21 -22 33 -25 98 -25 98 0 118 15
125 93 4 50 2 58 -21 81 -24 24 -34 26 -106 26 -74 0 -81 -2 -100 -26z m167
-72 l3 -43 -68 3 c-73 3 -82 11 -69 64 6 24 10 25 69 22 l62 -3 3 -43z"/>
<path d="M1022 987 c-17 -18 -22 -36 -22 -79 0 -79 25 -98 125 -98 101 0 120
16 120 100 0 85 -19 100 -124 100 -68 0 -80 -3 -99 -23z m166 -75 l3 -43 -68
3 c-66 3 -68 4 -71 31 -6 52 2 58 70 55 l63 -3 3 -43z"/>
<path d="M1302 990 c-18 -17 -22 -32 -22 -80 0 -80 24 -100 122 -100 38 0 78
4 88 10 43 23 49 131 9 171 -29 29 -166 28 -197 -1z m166 -77 l3 -43 -70 0
-71 0 0 38 c0 21 3 42 7 46 4 4 34 6 68 4 l60 -3 3 -42z"/>
<path d="M745 735 c-36 -35 -36 -115 0 -150 21 -22 33 -25 98 -25 103 0 122
15 122 100 0 85 -19 100 -122 100 -65 0 -77 -3 -98 -25z m160 -75 l0 -45 -53
-3 c-61 -4 -82 8 -82 47 0 40 15 49 78 47 l57 -2 0 -44z"/>
<path d="M1026 739 c-23 -18 -26 -28 -26 -78 0 -83 21 -101 122 -101 104 0
123 15 123 100 0 84 -19 100 -120 100 -58 0 -77 -4 -99 -21z m159 -81 l0 -43
-44 -3 c-76 -6 -91 3 -91 47 0 45 10 50 90 45 l45 -2 0 -44z"/>
<path d="M1302 737 c-17 -18 -22 -36 -22 -78 0 -80 22 -99 119 -99 40 0 81 4
91 10 43 23 49 131 9 171 -16 16 -33 19 -97 19 -69 0 -81 -3 -100 -23z m163
-77 l0 -45 -65 0 -65 0 -3 33 c-5 53 0 57 69 57 l64 0 0 -45z"/>
</g>
</svg>
